<svg width="443" height="562" viewBox="0 0 443 562" fill="none" xmlns="http://www.w3.org/2000/svg">
<path d="M299.136 553.915C308.046 563.685 323.566 564.833 334.481 553.341C402.871 481.788 442.243 385.812 442.243 280.926C442.243 176.042 402.871 79.7777 334.481 8.51339C323.566 -3.26803 308.046 -2.11946 299.136 7.65197C290.231 17.7077 292.239 31.7891 302.584 42.7091C362.071 105.065 395.404 188.685 395.404 280.926C395.404 373.168 362.071 456.501 302.584 518.858C292.239 529.776 290.231 544.145 299.136 553.915ZM216.093 477.478C225.284 488.111 241.38 488.111 252.297 475.753C300.001 424.029 327.014 355.352 327.014 280.926C327.014 206.501 300.001 137.536 252.297 85.812C241.38 73.7434 225.284 73.4563 216.093 84.3748C206.9 94.7205 209.771 108.226 220.117 120.008C258.623 162.823 280.174 218.858 280.174 280.926C280.174 342.708 258.623 399.031 220.117 441.846C209.771 453.628 206.9 466.846 216.093 477.478ZM135.633 395.582C145.116 406.213 162.357 406.501 172.414 393.569C197.413 362.536 211.784 323.168 211.784 280.926C211.784 238.685 197.413 199.318 172.414 168.283C162.357 155.065 145.116 155.352 135.633 166.272C126.437 176.616 130.46 189.259 139.369 201.903C155.747 223.742 164.943 251.042 164.943 280.926C164.943 310.812 156.61 338.398 139.369 359.949C130.173 372.306 126.437 385.236 135.633 395.582ZM42.2429 322.593C64.6557 322.593 84.4828 303.628 84.4828 280.352C84.4828 257.363 64.6557 238.111 42.2429 238.111C19.5414 238.111 0 257.363 0 280.352C0 303.628 19.5414 322.593 42.2429 322.593Z" fill="black"/>
</svg>
