<svg xmlns="http://www.w3.org/2000/svg" viewBox="0 0 24 24">
  <path d="M12 2C6.48 2 2 6.58 2 12.22c0 4.51 2.87 8.34 6.84 9.69.5.09.68-.22.68-.49 0-.24-.01-1.04-.01-1.89-2.51.47-3.16-.63-3.36-1.21-.11-.3-.6-1.21-1.03-1.46-.35-.19-.85-.66-.01-.67.79-.01 1.35.74 1.54 1.05.9 1.55 2.34 1.11 2.91.85.09-.67.35-1.11.64-1.37-2.22-.26-4.55-1.14-4.55-5.06 0-1.12.39-2.03 1.03-2.75-.1-.26-.45-1.3.1-2.71 0 0 .84-.28 2.75 1.05A9.3 9.3 0 0 1 12 6.91c.85 0 1.71.12 2.51.34 1.91-1.33 2.75-1.05 2.75-1.05.55 1.41.2 2.45.1 2.71.64.72 1.03 1.63 1.03 2.75 0 3.93-2.34 4.8-4.57 5.06.36.32.68.94.68 1.9 0 1.37-.01 2.47-.01 2.8 0 .27.18.59.69.49A10.1 10.1 0 0 0 22 12.22C22 6.58 17.52 2 12 2Z" />
</svg>